<?xml version="1.0" encoding="UTF-8"?>
<svg id="Layer_1" xmlns="http://www.w3.org/2000/svg" viewBox="0 0 450 300">
  <defs>
    <style>
      .cls-1 {
        fill: #fbc33b;
      }

      .cls-2 {
        letter-spacing: 0em;
      }

      .cls-3 {
        fill: none;
      }

      .cls-3, .cls-4 {
        stroke: #000;
        stroke-miterlimit: 10;
      }

      .cls-5 {
        font-family: SpaceGrotesk-Medium, 'Space Grotesk';
        font-size: 12px;
        font-variation-settings: 'wght' 500;
        font-weight: 500;
      }

      .cls-4 {
        stroke-width: 2px;
      }

      .cls-4, .cls-6 {
        fill: #1a1a1a;
      }

      .cls-7 {
        letter-spacing: -.1em;
      }

      .cls-8 {
        letter-spacing: -.09em;
      }

      .cls-9 {
        letter-spacing: -.07em;
      }

      .cls-10 {
        letter-spacing: -.02em;
      }

      .cls-11 {
        letter-spacing: -.02em;
      }

      .cls-12 {
        letter-spacing: -.02em;
      }

      .cls-13 {
        letter-spacing: -.02em;
      }

      .cls-14 {
        letter-spacing: -.01em;
      }

      .cls-15 {
        letter-spacing: -.03em;
      }

      .cls-16 {
        letter-spacing: -.03em;
      }

      .cls-17 {
        letter-spacing: -.03em;
      }

      .cls-18 {
        letter-spacing: -.03em;
      }

      .cls-19 {
        letter-spacing: 0em;
      }

      .cls-20 {
        letter-spacing: 0em;
      }

      .cls-21 {
        letter-spacing: -.01em;
      }

      .cls-22 {
        letter-spacing: -.01em;
      }

      .cls-23 {
        letter-spacing: 0em;
      }

      .cls-24 {
        letter-spacing: 0em;
      }
    </style>
  </defs>
  <rect class="cls-6" width="450" height="300"/>
  <rect class="cls-4" x="15" y="15" width="420" height="30"/>
  <rect class="cls-4" x="15" y="60" width="200" height="30"/>
  <rect class="cls-4" x="235" y="60" width="200" height="30"/>
  <rect class="cls-4" x="14.5" y="105" width="200" height="30"/>
  <rect class="cls-4" x="234.5" y="105" width="200" height="30"/>
  <rect class="cls-4" x="14.5" y="150" width="200" height="45"/>
  <rect class="cls-4" x="234.5" y="150" width="200" height="45"/>
  <rect class="cls-4" x="14.5" y="210" width="200" height="74"/>
  <rect class="cls-4" x="234.5" y="210" width="200" height="74"/>
  <rect class="cls-1" x="20" y="20" width="150" height="20"/>
  <text class="cls-5" transform="translate(22.5 34.12)"><tspan x="0" y="0">Sc</tspan><tspan class="cls-10" x="14.41" y="0">r</tspan><tspan class="cls-19" x="18.84" y="0">ew</tspan><tspan x="35.21" y="0">dri</tspan><tspan class="cls-13" x="50.62" y="0">v</tspan><tspan class="cls-2" x="56.94" y="0">e</tspan><tspan class="cls-22" x="63.95" y="0">r</tspan><tspan class="cls-2" x="68.46" y="0">s &amp;</tspan><tspan class="cls-23" x="85" y="0"> </tspan><tspan class="cls-24" x="87.97" y="0">W</tspan><tspan class="cls-10" x="98.6" y="0">r</tspan><tspan class="cls-2" x="103.03" y="0">enches</tspan></text>
  <line class="cls-3" x1="23" y1="22.59" x2="167" y2="22.59"/>
  <line class="cls-3" x1="23" y1="37.09" x2="167" y2="37.09"/>
  <rect class="cls-1" x="20" y="65" width="83.5" height="20"/>
  <text class="cls-5" transform="translate(22.5 79.12)"><tspan x="0" y="0">Glue Supplies</tspan></text>
  <line class="cls-3" x1="23" y1="67.59" x2="100.5" y2="67.59"/>
  <line class="cls-3" x1="23" y1="82.09" x2="100.5" y2="82.09"/>
  <rect class="cls-1" x="20" y="110" width="47.5" height="20"/>
  <text class="cls-5" transform="translate(22.5 124.12)"><tspan x="0" y="0">Clamps</tspan></text>
  <line class="cls-3" x1="23" y1="112.59" x2="64.5" y2="112.59"/>
  <line class="cls-3" x1="23" y1="127.09" x2="64.5" y2="127.09"/>
  <rect class="cls-1" x="20" y="155" width="122.5" height="20"/>
  <text class="cls-5" transform="translate(22.5 169.12)"><tspan x="0" y="0">Hamme</tspan><tspan class="cls-9" x="42.37" y="0">r</tspan><tspan class="cls-18" x="46.15" y="0">,</tspan><tspan x="49.06" y="0" xml:space="preserve"> Mall</tspan><tspan class="cls-11" x="75.67" y="0">e</tspan><tspan x="82.46" y="0">t</tspan><tspan class="cls-18" x="87.96" y="0">,</tspan><tspan x="90.86" y="0" xml:space="preserve"> S</tspan><tspan class="cls-19" x="101.23" y="0">a</tspan><tspan x="108.08" y="0">w</tspan></text>
  <line class="cls-3" x1="23" y1="157.59" x2="139.5" y2="157.59"/>
  <line class="cls-3" x1="23" y1="172.09" x2="139.5" y2="172.09"/>
  <rect class="cls-1" x="20" y="215" width="93.5" height="20"/>
  <text class="cls-5" transform="translate(22.5 229.12)"><tspan x="0" y="0">Soldering</tspan><tspan class="cls-15" x="55.24" y="0"> </tspan><tspan class="cls-7" x="57.96" y="0">T</tspan><tspan x="63.85" y="0">ools</tspan></text>
  <line class="cls-3" x1="23" y1="217.59" x2="110.5" y2="217.59"/>
  <line class="cls-3" x1="23" y1="232.09" x2="110.5" y2="232.09"/>
  <rect class="cls-1" x="274.5" y="20" width="155.5" height="20"/>
  <text class="cls-5" transform="translate(277.12 34.12)"><tspan x="0" y="0">Plie</tspan><tspan class="cls-21" x="20.39" y="0">r</tspan><tspan x="24.9" y="0">s</tspan><tspan class="cls-17" x="31.2" y="0">,</tspan><tspan x="34.1" y="0" xml:space="preserve"> Cutte</tspan><tspan class="cls-21" x="68.64" y="0">r</tspan><tspan x="73.15" y="0">s</tspan><tspan class="cls-18" x="79.45" y="0">,</tspan><tspan x="82.36" y="0" xml:space="preserve"> &amp; Strippe</tspan><tspan class="cls-21" x="138.56" y="0">r</tspan><tspan x="143.08" y="0">s</tspan></text>
  <line class="cls-3" x1="277.5" y1="22.59" x2="427" y2="22.59"/>
  <line class="cls-3" x1="277.5" y1="37.09" x2="427" y2="37.09"/>
  <rect class="cls-1" x="330.5" y="65" width="99.5" height="20"/>
  <text class="cls-5" transform="translate(332.94 79.12)"><tspan x="0" y="0">Me</tspan><tspan class="cls-20" x="17.5" y="0">a</tspan><tspan x="24.37" y="0">suring</tspan><tspan class="cls-15" x="60.82" y="0"> </tspan><tspan class="cls-7" x="63.54" y="0">T</tspan><tspan x="69.43" y="0">ools</tspan></text>
  <line class="cls-3" x1="333.5" y1="67.59" x2="427" y2="67.59"/>
  <line class="cls-3" x1="333.5" y1="82.09" x2="427" y2="82.09"/>
  <rect class="cls-1" x="246.5" y="110" width="183.5" height="20"/>
  <text class="cls-5" transform="translate(248.3 124.12)"><tspan class="cls-14" x="0" y="0">P</tspan><tspan class="cls-2" x="7.07" y="0">e</tspan><tspan class="cls-21" x="14.08" y="0">r</tspan><tspan x="18.59" y="0">sonal P</tspan><tspan class="cls-11" x="59.94" y="0">rot</tspan><tspan class="cls-2" x="76.81" y="0">e</tspan><tspan class="cls-10" x="83.82" y="0">c</tspan><tspan x="90.71" y="0">ti</tspan><tspan class="cls-12" x="99.28" y="0">v</tspan><tspan x="105.6" y="0">e Equipme</tspan><tspan class="cls-14" x="165.49" y="0">n</tspan><tspan x="172.7" y="0">t</tspan></text>
  <line class="cls-3" x1="248.5" y1="112.59" x2="427" y2="112.59"/>
  <line class="cls-3" x1="248.5" y1="127.09" x2="427" y2="127.09"/>
  <rect class="cls-1" x="326.5" y="155" width="103.5" height="20"/>
  <text class="cls-5" transform="translate(328.92 169.12)"><tspan x="0" y="0">Ele</tspan><tspan class="cls-10" x="16.79" y="0">c</tspan><tspan x="23.68" y="0">t</tspan><tspan class="cls-10" x="29.17" y="0">r</tspan><tspan x="33.6" y="0">onics</tspan><tspan class="cls-15" x="64.84" y="0"> </tspan><tspan class="cls-7" x="67.56" y="0">T</tspan><tspan x="73.45" y="0">ools</tspan></text>
  <line class="cls-3" x1="329.5" y1="157.59" x2="427" y2="157.59"/>
  <line class="cls-3" x1="329.5" y1="172.09" x2="427" y2="172.09"/>
  <rect class="cls-1" x="329.5" y="215" width="100.5" height="20"/>
  <text class="cls-5" transform="translate(331.95 229.12)"><tspan x="0" y="0">Clipboa</tspan><tspan class="cls-11" x="43.55" y="0">r</tspan><tspan x="47.98" y="0">d &amp;</tspan><tspan class="cls-16" x="65.9" y="0"> </tspan><tspan class="cls-8" x="68.63" y="0">T</tspan><tspan x="74.64" y="0">ank</tspan></text>
  <line class="cls-3" x1="332.5" y1="217.59" x2="427" y2="217.59"/>
  <line class="cls-3" x1="332.5" y1="232.09" x2="427" y2="232.09"/>
</svg>